<svg xmlns="http://www.w3.org/2000/svg" viewBox="0 0 800 540" font-family="Arial,sans-serif" font-size="13">
<defs><marker id="a" viewBox="0 0 10 10" refX="10" refY="5" markerWidth="8" markerHeight="8" orient="auto"><path d="M0,0 L10,5 L0,10Z" fill="#666"/></marker><style>
rect.bx{fill:#e8f4f8;stroke:#4a90d9;stroke-width:1.5;rx:5}rect.i{fill:#d4e8f0;stroke:#4a90d9;stroke-width:1;rx:3}rect.gr{fill:#d4edda;stroke:#5cb85c;stroke-width:1.5;rx:5}rect.yw{fill:#fff3cd;stroke:#f0ad4e;stroke-width:1.5;rx:5}rect.dc{fill:#f0f0f0;stroke:#999;stroke-width:1;rx:3}text.t{fill:#2c6fa0;font-weight:bold;font-size:14px;text-anchor:middle}text.l{fill:#333;text-anchor:middle;font-size:12px}text.s{fill:#666;text-anchor:middle;font-size:11px}text.y{fill:#5cb85c;font-size:11px}text.n{fill:#d9534f;font-size:11px}path.e{stroke:#666;stroke-width:1.5;fill:none;marker-end:url(#a)}
</style></defs><rect x="325" y="10" width="110" height="24" class="gr"/><text x="380" y="26" class="l">.ithmb file</text><path d="M380,34 L380,62" class="e"/><rect x="30" y="62" width="200" height="115" class="bx"/><text x="130" y="80" class="t">Plugin ABI Layer</text><rect x="40" y="89" width="180" height="22" class="i"/><text x="130" y="104" class="l">ig_plugin_get_api()</text><rect x="40" y="114" width="180" height="22" class="i"/><text x="130" y="129" class="l">DecodeStaticRaster()</text><rect x="40" y="139" width="180" height="22" class="i"/><text x="130" y="154" class="l">FreePixelBuffer()</text><rect x="255" y="62" width="245" height="115" class="bx"/><text x="380" y="80" class="t">Decode Pipeline</text><rect x="265" y="89" width="225" height="22" class="i"/><text x="380" y="104" class="l">Size Guard (&lt;100 MB)</text><rect x="265" y="114" width="225" height="22" class="i"/><text x="380" y="129" class="l">Peek 4MB + JPEG Scan (SIMD)</text><rect x="525" y="62" width="200" height="115" class="bx"/><text x="625" y="80" class="t">47 Profiles</text><text x="625" y="104" class="l">22 Photo (1005-3011)</text><text x="625" y="121" class="l">25 Cover Art (1010-3005)</text><text x="625" y="138" class="l">profiles.json override</text><text x="625" y="158" class="s">Runtime extensible (no recompile)</text><path d="M230,119 L255,119" class="e"/><path d="M525,119 L500,119" class="e"/><path d="M380,177 L380,207" class="e"/><rect x="310" y="207" width="140" height="24" class="dc"/><text x="380" y="223" class="l">JFIF/Exif within 512B?</text><path d="M310,219 L130,219 L130,255" class="e"/><text x="200" y="215" class="y">Yes</text><path d="M450,219 L625,219 L625,255" class="e"/><text x="545" y="215" class="n">No</text><rect x="30" y="255" width="200" height="70" class="gr"/><text x="130" y="273" class="t">JPEG Path</text><text x="130" y="293" class="l">StbImageSharp Decode</text><text x="130" y="310" class="l">RGBA → BGRA Swap</text><rect x="525" y="255" width="200" height="70" class="yw"/><text x="625" y="273" class="t">Raw Path</text><text x="625" y="293" class="l">Read 4-Byte BE Prefix</text><text x="625" y="310" class="l">Lookup KnownProfiles[47]</text><path d="M130,325 L130,387" class="e"/><rect x="50" y="387" width="160" height="28" class="i"/><text x="130" y="405" class="l">EXIF Orientation Parse</text><path d="M625,325 L625,351" class="e"/><rect x="525" y="351" width="200" height="100" class="bx"/><text x="625" y="369" class="t">Raw Decoders</text><text x="625" y="391" class="l">RGB565/RGB555 (SSE2)</text><text x="625" y="408" class="l">UYVY (SSSE3+SSE2)</text><text x="625" y="425" class="l">YCbCr 4:2:0 (Vector128)</text><text x="625" y="442" class="l">CLCL Nibble-Chroma</text><path d="M130,415 L130,479 L268,479" class="e"/><path d="M625,451 L625,479 L488,479" class="e"/><rect x="268" y="465" width="220" height="28" class="gr"/><text x="378" y="483" class="l">BGRA Buffer + IGImageInfo</text></svg>