<svg xmlns="http://www.w3.org/2000/svg" viewBox="0 0 800 245" font-family="Arial,sans-serif" font-size="13">
<defs><marker id="a" viewBox="0 0 10 10" refX="10" refY="5" markerWidth="8" markerHeight="8" orient="auto"><path d="M0,0 L10,5 L0,10Z" fill="#666"/></marker><style>
rect.bx{fill:#e8f4f8;stroke:#4a90d9;stroke-width:1.5;rx:5}rect.ci{fill:#d4e8f0;stroke:#4a90d9;stroke-width:1;rx:3}rect.gr{fill:#d4edda;stroke:#5cb85c;stroke-width:1.5;rx:5}rect.or{fill:#fdf0d5;stroke:#f0ad4e;stroke-width:1;rx:3}text.t{fill:#2c6fa0;font-weight:bold;font-size:14px;text-anchor:middle}text.l{fill:#333;text-anchor:middle;font-size:13px}path.e{stroke:#666;stroke-width:1.5;fill:none;marker-end:url(#a)}
</style></defs><rect x="35" y="30" width="170" height="185" class="bx"/><text x="120" y="50" class="t">Development</text><rect x="45" y="65" width="150" height="28" class="gr"/><text x="120" y="83" class="l">dotnet build -c Release</text><path d="M120,93 L120,117" class="e"/><rect x="45" y="117" width="150" height="28" class="gr"/><text x="120" y="135" class="l">dotnet test (current count)</text><path d="M120,145 L120,169" class="e"/><rect x="45" y="169" width="150" height="28" class="gr"/><text x="120" y="187" class="l">IthmbDecoder CLI Tool</text><rect x="229" y="30" width="170" height="185" class="bx"/><text x="314" y="50" class="t">CI (GitHub Actions)</text><rect x="239" y="65" width="150" height="28" class="ci"/><text x="314" y="83" class="l">git push to main</text><path d="M314,93 L314,117" class="e"/><rect x="239" y="117" width="150" height="28" class="ci"/><text x="314" y="135" class="l">Build + Tests ✓</text><path d="M314,145 L314,169" class="e"/><rect x="239" y="169" width="150" height="28" class="ci"/><text x="314" y="187" class="l">CodeQL Security Scan</text><rect x="423" y="30" width="170" height="185" class="bx"/><text x="508" y="50" class="t">Release</text><rect x="433" y="65" width="150" height="28" class="or"/><text x="508" y="83" class="l">dotnet publish</text><path d="M508,93 L508,117" class="e"/><rect x="433" y="117" width="150" height="28" class="or"/><text x="508" y="135" class="l">Package .zip</text><path d="M508,145 L508,169" class="e"/><rect x="433" y="169" width="150" height="28" class="or"/><text x="508" y="187" class="l">GitHub Release</text><rect x="617" y="30" width="170" height="185" class="gr"/><text x="702" y="50" class="t">Usage</text><rect x="627" y="82" width="150" height="28" class="ci"/><text x="702" y="100" class="l">ImageGlass v10 Plugin</text><path d="M702,110 L702,134" class="e"/><rect x="627" y="134" width="150" height="28" class="ci"/><text x="702" y="152" class="l">Standalone CLI Decoder</text><path d="M205,122 L229,122" class="e"/><path d="M399,122 L423,122" class="e"/><path d="M593,122 L617,122" class="e"/></svg>